<svg xmlns="http://www.w3.org/2000/svg" viewBox="0 0 512 512" width="512" height="512">
  <defs>
    <linearGradient id="bgMask" x1="0%" y1="0%" x2="100%" y2="100%">
      <stop offset="0%" stop-color="#0f111a" />
      <stop offset="50%" stop-color="#141724" />
      <stop offset="100%" stop-color="#07080c" />
    </linearGradient>
    <linearGradient id="primaryMask" x1="0%" y1="0%" x2="100%" y2="100%">
      <stop offset="0%" stop-color="#6366f1" />
      <stop offset="50%" stop-color="#4f46e5" />
      <stop offset="100%" stop-color="#06b6d4" />
    </linearGradient>
    <linearGradient id="goldMask" x1="0%" y1="0%" x2="100%" y2="100%">
      <stop offset="0%" stop-color="#fbbf24" />
      <stop offset="100%" stop-color="#f59e0b" />
    </linearGradient>
  </defs>

  <!-- Full bleed background for safe-zone maskable viewport -->
  <rect width="512" height="512" fill="url(#bgMask)" />

  <!-- Inner safe zone artwork (contained within 80% diameter) -->
  <g transform="translate(25.6, 25.6) scale(0.9)">
    <circle cx="256" cy="256" r="175" fill="none" stroke="url(#primaryMask)" stroke-width="6" stroke-dasharray="24 12" stroke-opacity="0.6" />
    <rect x="136" y="244" width="240" height="24" rx="12" fill="#ffffff" />
    <rect x="156" y="166" width="28" height="180" rx="10" fill="url(#primaryMask)" />
    <rect x="122" y="196" width="22" height="120" rx="8" fill="url(#primaryMask)" />
    <rect x="100" y="226" width="14" height="60" rx="5" fill="#94a3b8" />
    <rect x="328" y="166" width="28" height="180" rx="10" fill="url(#primaryMask)" />
    <rect x="368" y="196" width="22" height="120" rx="8" fill="url(#primaryMask)" />
    <rect x="398" y="226" width="14" height="60" rx="5" fill="#94a3b8" />
    <path d="M266 126 L236 240 L270 240 L246 386 L290 220 L256 220 Z" fill="url(#goldMask)" />
    <text x="256" y="432" text-anchor="middle" fill="#f8fafc" font-family="system-ui, -apple-system, sans-serif" font-size="30" font-weight="900" letter-spacing="3">EDDIEB FIT</text>
  </g>
</svg>
